Coordinates
version=1
nRows=17
nColumns=36
inDegrees=yes

Units are S.I. units (second, meters, Newtons, ...)
If the header above contains a line with 'inDegrees', this indicates whether rotational values are in degrees (yes) or radians (no).

endheader
time	pelvis_tilt	pelvis_list	pelvis_rotation	pelvis_tx	pelvis_ty	pelvis_tz	hip_flexion_r	hip_adduction_r	hip_rotation_r	knee_angle_r	knee_angle_r_beta	ankle_angle_r	subtalar_angle_r	mtp_angle_r	hip_flexion_l	hip_adduction_l	hip_rotation_l	knee_angle_l	knee_angle_l_beta	ankle_angle_l	subtalar_angle_l	mtp_angle_l	lumbar_extension	lumbar_bending	lumbar_rotation	arm_flex_r	arm_add_r	arm_rot_r	elbow_flex_r	pro_sup_r	arm_flex_l	arm_add_l	arm_rot_l	elbow_flex_l	pro_sup_l
      1.71666670	      1.97732110	     -0.17353915	      2.46699403	     -0.01611271	      1.32169656	      0.02591931	     -2.31174110	      1.96258251	    -13.83152858	      2.07485337	      0.03621302	     10.14797507	      2.68827731	     -7.49999987	     -0.84102291	     -0.26063568	     -6.94948898	      5.18455874	      0.09048762	     13.78160700	     12.99131213	     -7.49999987	     -4.10746655	      0.98343508	     -0.76144865	      2.49763935	     -5.58454854	      8.50459327	     29.77555565	     84.07310625	      1.15084012	     -5.75517437	      7.81476492	     25.97586534	     80.11622171
      1.73333330	      2.09795268	     -0.20601437	      2.44969157	     -0.01619334	      1.32114512	      0.02587680	     -2.39753675	      2.01784182	    -14.06185579	      2.11954018	      0.03699295	     10.36734208	      3.44837244	     -7.49999987	     -0.91553960	     -0.28760351	     -7.11655591	      5.01299518	      0.08749327	     14.00658704	     13.45871695	     -7.49999987	     -4.21147132	      0.97617867	     -0.76733486	      2.46125170	     -5.79544353	      9.55262864	     30.14922679	     82.23427070	      1.10069567	     -5.94595174	      8.66201310	     26.31715358	     78.42057407
      1.75000000	      2.16196674	     -0.19851904	      2.52735195	     -0.01627236	      1.32234314	      0.02562792	     -2.49848384	      2.01213716	    -14.05751197	      2.17590407	      0.03797669	     10.38125187	      3.70698593	     -7.49999987	     -0.93139508	     -0.27337928	     -6.88015254	      4.95865980	      0.08654494	     14.06923154	     13.42962353	     -7.49999987	     -4.17479681	      0.95323590	     -0.95728752	      2.53964103	     -5.84242205	      9.85352229	     30.02974571	     82.43809748	      1.10680503	     -6.00188606	      9.10336818	     26.21518471	     78.48640426
      1.76666670	      2.20011764	     -0.23457276	      2.45160811	     -0.01644268	      1.32192301	      0.02518220	     -2.55595840	      2.05531038	    -13.36744482	      2.27854287	      0.03976808	     10.40145723	      3.11080749	     -7.49999987	     -0.97304516	     -0.31893481	     -6.78328178	      4.87933283	      0.08516042	     14.26343414	     13.21789231	     -7.49999987	     -4.16797183	      0.94335893	     -0.96594489	      2.61606093	     -5.72373253	      9.68254119	     29.87104753	     80.93716938	      1.13332879	     -5.97063630	      8.86355100	     26.13216061	     77.15149039
      1.78333330	      2.18224390	     -0.25215084	      2.45834014	     -0.01657945	      1.32221074	      0.02496677	     -2.56344101	      2.06043994	    -13.48103692	      2.34513517	      0.04093033	     10.50859102	      3.36063028	     -7.49999987	     -0.93945345	     -0.35890973	     -6.83709558	      4.88828422	      0.08531665	     14.50249504	     13.52202815	     -7.49999987	     -4.11369951	      0.93465247	     -1.03195770	      2.47861455	     -5.62288637	      8.55725941	     30.03233646	     86.08478767	      1.02848800	     -5.93279122	      7.89869675	     26.23592781	     81.52041155
      1.80000000	      2.21248815	     -0.26879521	      2.42664108	     -0.01578289	      1.32196691	      0.02378816	     -2.54751515	      2.10488995	    -13.13438213	      2.31780477	      0.04045332	     10.73943636	      3.52126147	     -7.49999987	     -0.96108649	     -0.38644766	     -6.80657011	      4.83208965	      0.08433587	     14.75356818	     13.57209927	     -7.49999987	     -4.05784857	      0.92569280	     -1.13235248	      2.42251499	     -5.57831560	      8.60023076	     30.00350623	     83.78495467	      0.92720680	     -5.89428749	      7.83095952	     26.28547394	     79.54793085
      1.81666670	      2.28286962	     -0.24481862	      2.52544972	     -0.01807155	      1.32444096	      0.02381674	     -2.59633850	      2.07627994	    -13.12704730	      2.24084252	      0.03911008	     10.35949794	      3.52398329	     -7.49999987	     -1.00896488	     -0.33070358	     -6.57842759	      4.77270244	      0.08329937	     14.53038028	     13.46797268	     -7.49999987	     -4.07274899	      0.86974288	     -1.26293788	      2.42068971	     -5.56738772	      8.41393561	     29.93821047	     86.06908098	      1.03949943	     -5.91558392	      7.79831211	     26.11743158	     81.70455904
      1.83333330	      2.26422505	     -0.20866722	      2.50092248	     -0.01865017	      1.32108659	      0.02374839	     -2.49285742	      2.02127213	    -12.93491015	      2.13394141	      0.03724430	     10.42331432	      3.40920269	     -7.49999987	     -0.95069578	     -0.24270641	     -6.63749680	      4.70624360	      0.08213945	     14.48735479	     13.23780465	     -7.49999987	     -4.00021806	      0.82691718	     -1.28697655	      2.45271194	     -5.61707028	      8.75386937	     29.87700440	     85.23916103	      1.06097762	     -5.93801591	      8.03807061	     25.97736096	     80.98777472
      1.85000000	      2.26975057	     -0.12605650	      2.51578765	     -0.01885008	      1.32164446	      0.02365283	     -2.40676093	      1.87992916	    -13.07834584	      2.00215579	      0.03494421	     10.68005621	      3.80411045	     -7.49999987	     -0.94225087	     -0.11569186	     -6.74740916	      4.61549271	      0.08055554	     14.23913994	     13.13803668	     -7.49999987	     -3.96244611	      0.72821391	     -1.32578945	      2.44447508	     -5.64020085	      9.28072901	     29.76647745	     83.46149669	      1.12514410	     -6.02156004	      8.55790449	     25.87315522	     79.35568103
      1.86666670	      2.30468721	     -0.09628594	      2.53615509	     -0.02063072	      1.32133105	      0.02287957	     -2.37955621	      1.79278208	    -12.91997946	      1.94809304	      0.03400064	     10.67485575	      3.84127445	     -7.49999987	     -0.93143839	     -0.03747494	     -6.68539039	      4.57287694	      0.07981176	     14.14971151	     12.94261953	     -7.49999987	     -4.00130071	      0.68046633	     -1.31540704	      2.38605685	     -5.60003030	      8.87413982	     29.75301245	     84.92083202	      1.21353894	     -6.03597953	      8.60423445	     25.81660453	     80.47576126
      1.88333330	      2.31852827	     -0.06172447	      2.61147439	     -0.02135721	      1.32176375	      0.02246658	     -2.32651988	      1.73862082	    -12.93755491	      1.89222022	      0.03302547	     10.68561732	      3.81988322	     -7.49999987	     -0.91156203	     -0.00041943	     -6.80166699	      4.63913118	      0.08096811	     13.92899381	     12.79110970	     -7.49999987	     -4.05990017	      0.64741784	     -1.33427997	      2.24876472	     -5.53877560	      8.36661106	     29.86184011	     85.80214410	      1.33086638	     -6.02869113	      8.59179093	     25.78196499	     81.06792329
      1.90000000	      2.28464678	     -0.09360827	      2.73967544	     -0.02186387	      1.32160368	      0.02214538	     -2.33377410	      1.75568402	    -12.94932410	      1.89885620	      0.03314129	     10.30403782	      3.68026842	     -7.49999987	     -0.82661907	     -0.03125744	     -6.63140589	      4.79677379	      0.08371950	     13.65833281	     12.47844631	     -7.49999987	     -3.97931198	      0.66003888	     -1.56415719	      2.30326378	     -5.41464112	      8.42701507	     29.46068117	     83.30539802	      1.38680567	     -5.97059487	      8.48188743	     25.54503283	     79.00272787
      1.91666670	      2.37848870	     -0.16258267	      2.78098988	     -0.02240301	      1.32134163	      0.02195174	     -2.39109897	      1.81658399	    -13.06170772	      2.03908755	      0.03558879	     10.57284149	      4.23998204	     -7.49999987	     -0.91050305	     -0.13432074	     -6.74797412	      4.82346465	      0.08418534	     13.66388825	     12.40506367	     -7.49999987	     -4.18282899	      0.69935310	     -1.54442712	      2.22809511	     -5.41347625	      8.75076229	     29.52176919	     81.17172544	      1.46799525	     -6.04002418	      8.66525237	     25.71559315	     77.16197722
      1.93333330	      2.35312561	     -0.15220387	      2.80253878	     -0.02371425	      1.32377716	      0.02172422	     -2.33227376	      1.76242627	    -12.92944468	      2.06163288	      0.03598228	     10.25978937	      4.08635439	     -7.49999987	     -0.92073974	     -0.10018285	     -6.81587381	      4.83438120	      0.08437587	     13.40560235	     12.66243541	     -7.49999987	     -4.24112106	      0.73170129	     -1.36978792	      1.92956318	     -5.46920834	      7.75130511	     29.93771207	     86.00917566	      1.63563029	     -6.08052560	      9.12298205	     25.70082016	     80.85888105
      1.95000000	      2.38876310	     -0.24500693	      2.73441560	     -0.02417044	      1.32305798	      0.02131541	     -2.28962892	      1.82969648	    -12.69788829	      2.08459185	      0.03638299	     10.44463695	      4.28655145	     -7.49999987	     -0.91196390	     -0.17480997	     -6.87691262	      4.72975656	      0.08254982	     13.56895065	     12.86048911	     -7.49999987	     -4.38349251	      0.85649835	     -1.36306427	      1.94583514	     -5.46735671	      7.97603552	     29.88095481	     83.58208517	      1.59979618	     -5.98645249	      8.98600728	     25.88983153	     78.80334678
      1.96666670	      2.36649883	     -0.27210882	      2.74982151	     -0.02631170	      1.32251776	      0.02092853	     -2.16140442	      1.78513338	    -12.67862407	      2.16389352	      0.03776707	     10.52491031	      4.31164444	     -7.49999987	     -0.83740293	     -0.13445107	     -6.73202203	      4.60730030	      0.08041256	     13.53312633	     12.89311182	     -7.49999987	     -4.43855954	      0.87781948	     -1.50440876	      1.92080148	     -5.46978580	      7.69095568	     29.95445624	     86.37156958	      1.57344888	     -6.01430134	      8.51020672	     26.02836041	     81.33091529
      1.98333330	      2.30324834	     -0.26486151	      2.72954183	     -0.02784904	      1.32466672	      0.02118204	     -1.99990326	      1.72847402	    -12.74828106	      2.17310522	      0.03792784	     10.40039601	      4.38537683	     -7.49999987	     -0.74930930	     -0.08300722	     -6.80835271	      4.59706874	      0.08023399	     13.27290447	     12.92936387	     -7.49999987	     -4.47385467	      0.87541249	     -1.51833320	      1.91773067	     -5.52822026	      8.29707104	     29.90917825	     84.21981958	      1.61096594	     -6.06315001	      8.97622385	     25.95914951	     79.50016527
